<svg width="12" height="8" viewBox="0 0 12 8" fill="none" xmlns="http://www.w3.org/2000/svg">
<path fill-rule="evenodd" clip-rule="evenodd" d="M7.10837 0.149625C7.27922 -0.0212292 7.55623 -0.0212292 7.72708 0.149625L11.2679 3.69046C11.35 3.7725 11.3961 3.88378 11.3961 3.99982C11.3961 4.11585 11.35 4.22713 11.2679 4.30918L7.72708 7.85001C7.55623 8.02086 7.27922 8.02086 7.10837 7.85001C6.93751 7.67915 6.93751 7.40214 7.10837 7.23129L10.3398 3.99982L7.10837 0.768343C6.93751 0.597489 6.93751 0.320479 7.10837 0.149625Z" fill="#3333FF"/>
<path fill-rule="evenodd" clip-rule="evenodd" d="M0.60437 4C0.60437 3.75838 0.800246 3.5625 1.04187 3.5625H10.8594C11.101 3.5625 11.2969 3.75838 11.2969 4C11.2969 4.24162 11.101 4.4375 10.8594 4.4375H1.04187C0.800246 4.4375 0.60437 4.24162 0.60437 4Z" fill="#3333FF"/>
</svg>
