<svg width="12" height="8" viewBox="0 0 12 8" fill="none" xmlns="http://www.w3.org/2000/svg">
<path fill-rule="evenodd" clip-rule="evenodd" d="M7.10812 0.149808C7.27898 -0.0210461 7.55599 -0.0210461 7.72684 0.149808L11.2677 3.69064C11.3497 3.77269 11.3958 3.88397 11.3958 4C11.3958 4.11603 11.3497 4.22731 11.2677 4.30936L7.72684 7.85019C7.55599 8.02105 7.27898 8.02105 7.10812 7.85019C6.93727 7.67934 6.93727 7.40233 7.10812 7.23147L10.3396 4L7.10812 0.768526C6.93727 0.597672 6.93727 0.320663 7.10812 0.149808Z" fill="#FD2E35"/>
<path fill-rule="evenodd" clip-rule="evenodd" d="M0.604004 4C0.604004 3.75838 0.799879 3.5625 1.0415 3.5625H10.859C11.1006 3.5625 11.2965 3.75838 11.2965 4C11.2965 4.24162 11.1006 4.4375 10.859 4.4375H1.0415C0.799879 4.4375 0.604004 4.24162 0.604004 4Z" fill="#FD2E35"/>
</svg>
